<?xml version="1.0" encoding="UTF-8"?>
<!DOCTYPE svg PUBLIC "-//W3C//DTD SVG 1.1//EN" "http://www.w3.org/Graphics/SVG/1.1/DTD/svg11.dtd">
<svg xmlns="http://www.w3.org/2000/svg" version="1.1" width="500px" height="500px" style="shape-rendering:geometricPrecision; text-rendering:geometricPrecision; image-rendering:optimizeQuality; fill-rule:evenodd; clip-rule:evenodd" xmlns:xlink="http://www.w3.org/1999/xlink">
<g><path style="opacity:1" fill="#fefefe" d="M -0.5,-0.5 C 166.167,-0.5 332.833,-0.5 499.5,-0.5C 499.5,166.167 499.5,332.833 499.5,499.5C 332.833,499.5 166.167,499.5 -0.5,499.5C -0.5,332.833 -0.5,166.167 -0.5,-0.5 Z"/></g>
<g><path style="opacity:1" fill="#06a24f" d="M 110.5,54.5 C 128.341,54.1699 146.008,54.5033 163.5,55.5C 162.662,55.8417 162.328,56.5084 162.5,57.5C 162.5,75.5 162.5,93.5 162.5,111.5C 162.5,111.833 162.5,112.167 162.5,112.5C 143.5,112.5 124.5,112.5 105.5,112.5C 105.5,97.1667 105.5,81.8333 105.5,66.5C 105.5,66.1667 105.5,65.8333 105.5,65.5C 105.5,62.1667 105.5,58.8333 105.5,55.5C 107.415,55.7845 109.081,55.4511 110.5,54.5 Z"/></g>
<g><path style="opacity:1" fill="#f8e30e" d="M 394.5,111.5 C 375.243,112.487 355.909,112.82 336.5,112.5C 336.83,93.6592 336.497,74.9925 335.5,56.5C 354.805,54.5122 374.472,53.8455 394.5,54.5C 394.5,73.5 394.5,92.5 394.5,111.5 Z"/></g>
<g><path style="opacity:1" fill="#81d0a6" d="M 110.5,54.5 C 109.081,55.4511 107.415,55.7845 105.5,55.5C 105.5,58.8333 105.5,62.1667 105.5,65.5C 104.518,62.0381 104.185,58.3714 104.5,54.5C 106.5,54.5 108.5,54.5 110.5,54.5 Z"/></g>
<g><path style="opacity:1" fill="#7796c6" d="M 163.5,55.5 C 179.833,55.5 196.167,55.5 212.5,55.5C 195.931,56.1802 179.265,56.8468 162.5,57.5C 162.328,56.5084 162.662,55.8417 163.5,55.5 Z"/></g>
<g><path style="opacity:1" fill="#2051a3" d="M 212.5,55.5 C 215.167,55.5 217.833,55.5 220.5,55.5C 220.5,74.1667 220.5,92.8333 220.5,111.5C 201.025,111.085 181.692,111.085 162.5,111.5C 162.5,93.5 162.5,75.5 162.5,57.5C 179.265,56.8468 195.931,56.1802 212.5,55.5 Z"/></g>
<g><path style="opacity:1" fill="#72c1a1" d="M 105.5,66.5 C 105.5,81.8333 105.5,97.1667 105.5,112.5C 124.5,112.5 143.5,112.5 162.5,112.5C 162.5,112.833 162.5,113.167 162.5,113.5C 143.167,113.5 123.833,113.5 104.5,113.5C 104.17,97.6578 104.504,81.9911 105.5,66.5 Z"/></g>
<g><path style="opacity:1" fill="#7c63a8" d="M 220.5,111.5 C 201.341,112.497 182.007,112.83 162.5,112.5C 162.5,112.167 162.5,111.833 162.5,111.5C 181.692,111.085 201.025,111.085 220.5,111.5 Z"/></g>
<g><path style="opacity:1" fill="#ef7baf" d="M 279.5,56.5 C 277.513,74.8034 276.846,93.4701 277.5,112.5C 258.813,112.247 240.146,112.58 221.5,113.5C 220.503,132.659 220.17,151.993 220.5,171.5C 201.167,171.5 181.833,171.5 162.5,171.5C 162.5,190.167 162.5,208.833 162.5,227.5C 143.5,227.5 124.5,227.5 105.5,227.5C 105.5,208.833 105.5,190.167 105.5,171.5C 105.5,170.833 105.5,170.167 105.5,169.5C 124.5,169.5 143.5,169.5 162.5,169.5C 162.5,150.833 162.5,132.167 162.5,113.5C 162.5,113.167 162.5,112.833 162.5,112.5C 182.007,112.83 201.341,112.497 220.5,111.5C 220.5,92.8333 220.5,74.1667 220.5,55.5C 230.161,54.8335 239.994,54.5002 250,54.5C 260.19,54.5014 270.023,55.1681 279.5,56.5 Z"/></g>
<g><path style="opacity:1" fill="#f9b9c5" d="M 277.5,112.5 C 258.85,114.333 240.183,114.666 221.5,113.5C 240.146,112.58 258.813,112.247 277.5,112.5 Z"/></g>
<g><path style="opacity:1" fill="#05a14f" d="M 394.5,111.5 C 394.5,115.5 394.5,119.5 394.5,123.5C 393.799,130.037 393.132,136.703 392.5,143.5C 393.471,152.112 393.804,160.779 393.5,169.5C 374.167,169.5 354.833,169.5 335.5,169.5C 335.5,151.167 335.5,132.833 335.5,114.5C 335.328,113.508 335.662,112.842 336.5,112.5C 355.909,112.82 375.243,112.487 394.5,111.5 Z"/></g>
<g><path style="opacity:1" fill="#2253a4" d="M 104.5,113.5 C 123.833,113.5 143.167,113.5 162.5,113.5C 162.5,132.167 162.5,150.833 162.5,169.5C 143.5,169.5 124.5,169.5 105.5,169.5C 104.903,163.04 105.57,156.874 107.5,151C 106.244,150.583 105.577,149.75 105.5,148.5C 104.522,136.914 104.189,125.247 104.5,113.5 Z"/></g>
<g><path style="opacity:1" fill="#f9e103" d="M 335.5,114.5 C 335.5,132.833 335.5,151.167 335.5,169.5C 316.5,169.5 297.5,169.5 278.5,169.5C 278.5,151.167 278.5,132.833 278.5,114.5C 297.5,114.5 316.5,114.5 335.5,114.5 Z"/></g>
<g><path style="opacity:1" fill="#82d0a6" d="M 394.5,123.5 C 394.5,138.833 394.5,154.167 394.5,169.5C 394.167,169.5 393.833,169.5 393.5,169.5C 393.804,160.779 393.471,152.112 392.5,143.5C 393.132,136.703 393.799,130.037 394.5,123.5 Z"/></g>
<g><path style="opacity:1" fill="#8197c7" d="M 105.5,148.5 C 105.577,149.75 106.244,150.583 107.5,151C 105.57,156.874 104.903,163.04 105.5,169.5C 105.5,170.167 105.5,170.833 105.5,171.5C 105.167,171.5 104.833,171.5 104.5,171.5C 104.175,163.648 104.508,155.982 105.5,148.5 Z"/></g>
<g><path style="opacity:1" fill="#05a14d" d="M 278.5,169.5 C 297.5,169.5 316.5,169.5 335.5,169.5C 335.5,188.5 335.5,207.5 335.5,226.5C 330.833,226.5 326.167,226.5 321.5,226.5C 306.833,226.5 292.167,226.5 277.5,226.5C 277.5,208.5 277.5,190.5 277.5,172.5C 278.11,171.609 278.443,170.609 278.5,169.5 Z"/></g>
<g><path style="opacity:1" fill="#f04d36" d="M 279.5,56.5 C 298.167,56.5 316.833,56.5 335.5,56.5C 336.497,74.9925 336.83,93.6592 336.5,112.5C 335.662,112.842 335.328,113.508 335.5,114.5C 316.5,114.5 297.5,114.5 278.5,114.5C 278.5,132.833 278.5,151.167 278.5,169.5C 278.443,170.609 278.11,171.609 277.5,172.5C 258.833,172.5 240.167,172.5 221.5,172.5C 221.5,190.5 221.5,208.5 221.5,226.5C 220.596,227.209 220.263,228.209 220.5,229.5C 201.5,229.5 182.5,229.5 163.5,229.5C 163.5,247.833 163.5,266.167 163.5,284.5C 163.672,285.492 163.338,286.158 162.5,286.5C 154.833,286.5 147.167,286.5 139.5,286.5C 127.833,286.5 116.167,286.5 104.5,286.5C 104.5,286.167 104.5,285.833 104.5,285.5C 105.497,266.674 105.83,247.674 105.5,228.5C 124.674,228.83 143.674,228.497 162.5,227.5C 162.5,208.833 162.5,190.167 162.5,171.5C 181.833,171.5 201.167,171.5 220.5,171.5C 220.17,151.993 220.503,132.659 221.5,113.5C 240.183,114.666 258.85,114.333 277.5,112.5C 276.846,93.4701 277.513,74.8034 279.5,56.5 Z"/></g>
<g><path style="opacity:1" fill="#fae301" d="M 277.5,172.5 C 277.5,190.5 277.5,208.5 277.5,226.5C 258.833,226.5 240.167,226.5 221.5,226.5C 221.5,208.5 221.5,190.5 221.5,172.5C 240.167,172.5 258.833,172.5 277.5,172.5 Z"/></g>
<g><path style="opacity:1" fill="#f9b8c4" d="M 104.5,171.5 C 104.833,171.5 105.167,171.5 105.5,171.5C 105.5,190.167 105.5,208.833 105.5,227.5C 124.5,227.5 143.5,227.5 162.5,227.5C 143.674,228.497 124.674,228.83 105.5,228.5C 105.83,247.674 105.497,266.674 104.5,285.5C 104.5,247.5 104.5,209.5 104.5,171.5 Z"/></g>
<g><path style="opacity:1" fill="#09a14e" d="M 221.5,226.5 C 240.167,226.5 258.833,226.5 277.5,226.5C 277.17,244.341 277.503,262.008 278.5,279.5C 277.699,281.042 277.366,282.708 277.5,284.5C 258.5,284.5 239.5,284.5 220.5,284.5C 220.5,266.167 220.5,247.833 220.5,229.5C 220.263,228.209 220.596,227.209 221.5,226.5 Z"/></g>
<g><path style="opacity:1" fill="#2252a4" d="M 335.5,169.5 C 354.833,169.5 374.167,169.5 393.5,169.5C 393.833,169.5 394.167,169.5 394.5,169.5C 394.5,188.5 394.5,207.5 394.5,226.5C 375.243,227.487 355.909,227.82 336.5,227.5C 336.5,245.833 336.5,264.167 336.5,282.5C 336.443,283.609 336.11,284.609 335.5,285.5C 316.5,285.5 297.5,285.5 278.5,285.5C 278.5,302.167 278.5,318.833 278.5,335.5C 278.5,335.833 278.5,336.167 278.5,336.5C 278.167,336.5 277.833,336.5 277.5,336.5C 274.977,335.746 272.311,335.08 269.5,334.5C 264.889,335.61 260.222,335.777 255.5,335C 256.696,334.346 256.696,333.846 255.5,333.5C 244.018,335.45 232.351,336.116 220.5,335.5C 220.5,321.5 220.5,307.5 220.5,293.5C 220.5,290.5 220.5,287.5 220.5,284.5C 239.5,284.5 258.5,284.5 277.5,284.5C 277.366,282.708 277.699,281.042 278.5,279.5C 279.239,279.631 279.906,279.464 280.5,279C 279.19,273.243 278.524,267.243 278.5,261C 279.146,249.692 279.146,238.525 278.5,227.5C 293.01,227.829 307.343,227.496 321.5,226.5C 326.167,226.5 330.833,226.5 335.5,226.5C 335.5,207.5 335.5,188.5 335.5,169.5 Z"/></g>
<g><path style="opacity:1" fill="#ee7baf" d="M 394.5,226.5 C 394.5,231.5 394.5,236.5 394.5,241.5C 393.504,254.99 393.171,268.656 393.5,282.5C 374.5,282.5 355.5,282.5 336.5,282.5C 336.5,264.167 336.5,245.833 336.5,227.5C 355.909,227.82 375.243,227.487 394.5,226.5 Z"/></g>
<g><path style="opacity:1" fill="#f7e203" d="M 220.5,229.5 C 220.5,247.833 220.5,266.167 220.5,284.5C 201.5,284.5 182.5,284.5 163.5,284.5C 163.5,266.167 163.5,247.833 163.5,229.5C 182.5,229.5 201.5,229.5 220.5,229.5 Z"/></g>
<g><path style="opacity:1" fill="#1b6d88" d="M 277.5,226.5 C 292.167,226.5 306.833,226.5 321.5,226.5C 307.343,227.496 293.01,227.829 278.5,227.5C 279.146,238.525 279.146,249.692 278.5,261C 278.524,267.243 279.19,273.243 280.5,279C 279.906,279.464 279.239,279.631 278.5,279.5C 277.503,262.008 277.17,244.341 277.5,226.5 Z"/></g>
<g><path style="opacity:1" fill="#f04c38" d="M 336.5,282.5 C 355.5,282.5 374.5,282.5 393.5,282.5C 393.5,300.167 393.5,317.833 393.5,335.5C 374.167,335.5 354.833,335.5 335.5,335.5C 335.5,318.833 335.5,302.167 335.5,285.5C 336.11,284.609 336.443,283.609 336.5,282.5 Z"/></g>
<g><path style="opacity:1" fill="#02a14e" d="M 163.5,284.5 C 182.5,284.5 201.5,284.5 220.5,284.5C 220.5,287.5 220.5,290.5 220.5,293.5C 219.504,307.323 219.171,321.323 219.5,335.5C 211.391,336.114 203.558,335.447 196,333.5C 185.243,335.142 174.41,336.142 163.5,336.5C 163.167,336.5 162.833,336.5 162.5,336.5C 162.5,336.167 162.5,335.833 162.5,335.5C 162.5,319.167 162.5,302.833 162.5,286.5C 163.338,286.158 163.672,285.492 163.5,284.5 Z"/></g>
<g><path style="opacity:1" fill="#ee7baf" d="M 335.5,285.5 C 335.5,302.167 335.5,318.833 335.5,335.5C 316.143,335.199 297.143,335.199 278.5,335.5C 278.5,318.833 278.5,302.167 278.5,285.5C 297.5,285.5 316.5,285.5 335.5,285.5 Z"/></g>
<g><path style="opacity:1" fill="#f9e201" d="M 139.5,286.5 C 147.167,286.5 154.833,286.5 162.5,286.5C 162.5,302.833 162.5,319.167 162.5,335.5C 143.36,334.932 124.36,334.932 105.5,335.5C 105.5,319.5 105.5,303.5 105.5,287.5C 117.012,287.828 128.346,287.495 139.5,286.5 Z"/></g>
<g><path style="opacity:1" fill="#fbde44" d="M 104.5,286.5 C 116.167,286.5 127.833,286.5 139.5,286.5C 128.346,287.495 117.012,287.828 105.5,287.5C 105.5,303.5 105.5,319.5 105.5,335.5C 124.36,334.932 143.36,334.932 162.5,335.5C 162.5,335.833 162.5,336.167 162.5,336.5C 143.167,336.5 123.833,336.5 104.5,336.5C 104.5,319.833 104.5,303.167 104.5,286.5 Z"/></g>
<g><path style="opacity:1" fill="#34a875" d="M 220.5,293.5 C 220.5,307.5 220.5,321.5 220.5,335.5C 220.5,335.833 220.5,336.167 220.5,336.5C 201.5,336.5 182.5,336.5 163.5,336.5C 174.41,336.142 185.243,335.142 196,333.5C 203.558,335.447 211.391,336.114 219.5,335.5C 219.171,321.323 219.504,307.323 220.5,293.5 Z"/></g>
<g><path style="opacity:1" fill="#567dba" d="M 277.5,336.5 C 258.5,336.5 239.5,336.5 220.5,336.5C 220.5,336.167 220.5,335.833 220.5,335.5C 232.351,336.116 244.018,335.45 255.5,333.5C 256.696,333.846 256.696,334.346 255.5,335C 260.222,335.777 264.889,335.61 269.5,334.5C 272.311,335.08 274.977,335.746 277.5,336.5 Z"/></g>
<g><path style="opacity:1" fill="#f39bc2" d="M 335.5,335.5 C 335.5,335.833 335.5,336.167 335.5,336.5C 316.5,336.5 297.5,336.5 278.5,336.5C 278.5,336.167 278.5,335.833 278.5,335.5C 297.143,335.199 316.143,335.199 335.5,335.5 Z"/></g>
<g><path style="opacity:1" fill="#f78d82" d="M 394.5,241.5 C 394.5,273.167 394.5,304.833 394.5,336.5C 374.833,336.5 355.167,336.5 335.5,336.5C 335.5,336.167 335.5,335.833 335.5,335.5C 354.833,335.5 374.167,335.5 393.5,335.5C 393.5,317.833 393.5,300.167 393.5,282.5C 393.171,268.656 393.504,254.99 394.5,241.5 Z"/></g>
<g><path style="opacity:1" fill="#ff9453" d="M 430.5,349.5 C 433.365,349.055 435.865,349.722 438,351.5C 439.992,359.356 440.992,367.356 441,375.5C 444.881,371.938 449.048,371.605 453.5,374.5C 459.219,385.835 461.053,397.835 459,410.5C 458.131,413.394 456.298,414.561 453.5,414C 452.924,402.186 452.091,390.353 451,378.5C 448.944,372.3 445.944,371.966 442,377.5C 441.667,391.167 441.333,404.833 441,418.5C 437.996,423.381 434.33,423.715 430,419.5C 428.41,396.866 428.077,374.199 429,351.5C 429.717,350.956 430.217,350.289 430.5,349.5 Z"/></g>
<g><path style="opacity:1" fill="#c2ff75" d="M 189.5,359.5 C 194.194,359.363 196.361,361.697 196,366.5C 196.667,383.167 196.667,399.833 196,416.5C 194.951,420.265 193.618,423.932 192,427.5C 190.611,429.227 188.944,430.561 187,431.5C 186.228,431.355 185.561,431.022 185,430.5C 184.006,425.882 183.506,421.215 183.5,416.5C 170.801,415.447 166.301,408.78 170,396.5C 173.882,392.286 178.548,389.286 184,387.5C 184.616,379.163 185.282,370.829 186,362.5C 187.145,361.364 188.312,360.364 189.5,359.5 Z"/></g>
<g><path style="opacity:1" fill="#ff3735" d="M 46.5,361.5 C 54.1747,361.35 57.5081,365.183 56.5,373C 56.3333,375.167 56.1667,377.333 56,379.5C 55.4022,374.304 53.2356,369.971 49.5,366.5C 48.2011,367.09 47.3678,368.09 47,369.5C 45.3895,382.477 45.3895,395.477 47,408.5C 47.5112,410.878 48.1779,413.212 49,415.5C 50.8265,419.037 53.1598,419.371 56,416.5C 57.4173,411.408 59.084,406.408 61,401.5C 63.6154,412.202 61.1154,421.368 53.5,429C 41.1741,427.998 35.0075,421.165 35,408.5C 34.1989,396.798 34.5322,385.132 36,373.5C 38.6492,368.689 42.1492,364.689 46.5,361.5 Z"/></g>
<g><path style="opacity:1" fill="#ff5b5b" d="M 285.5,361.5 C 293.175,361.35 296.508,365.183 295.5,373C 295.333,375.167 295.167,377.333 295,379.5C 289.4,361.871 285.9,362.371 284.5,381C 284.956,391.549 285.789,402.049 287,412.5C 288.804,419.537 291.804,420.204 296,414.5C 296.707,409.955 298.04,405.622 300,401.5C 302.533,412.175 300.033,421.341 292.5,429C 283.693,429.166 277.859,425 275,416.5C 273.053,402.162 273.053,387.829 275,373.5C 277.649,368.689 281.149,364.689 285.5,361.5 Z"/></g>
<g><path style="opacity:1" fill="#41b8ff" d="M 123.5,365.5 C 129.299,364.651 133.799,366.651 137,371.5C 150.192,363.937 157.192,367.937 158,383.5C 158.239,393.853 158.739,404.186 159.5,414.5C 159.113,419.554 156.446,422.221 151.5,422.5C 151.407,405.489 150.907,388.489 150,371.5C 144.433,368.131 140.266,369.464 137.5,375.5C 139.41,380.118 140.41,384.951 140.5,390C 139.706,397.593 138.54,405.093 137,412.5C 132.503,420.798 127.17,421.465 121,414.5C 120.378,398.817 120.712,383.15 122,367.5C 122.717,366.956 123.217,366.289 123.5,365.5 Z"/></g>
<g><path style="opacity:1" fill="#ff6bc5" d="M 100.5,368.5 C 104.562,368.724 107.395,370.724 109,374.5C 114.298,390.943 114.964,407.61 111,424.5C 108.521,426.917 105.521,427.917 102,427.5C 99.9063,427.464 97.9063,427.131 96,426.5C 95.8253,422.789 95.3253,419.122 94.5,415.5C 85.8708,419.415 79.3708,417.082 75,408.5C 70.2025,393.892 74.0358,382.059 86.5,373C 90.3808,371.81 94.3808,371.143 98.5,371C 99.3805,370.292 100.047,369.458 100.5,368.5 Z"/></g>
<g><path style="opacity:1" fill="#ffbe5d" d="M 204.5,370.5 C 205.822,370.33 206.989,370.663 208,371.5C 210.735,382.146 215.901,391.313 223.5,399C 225.749,399.863 227.582,399.363 229,397.5C 230.426,389.181 231.76,380.848 233,372.5C 235.916,370.987 238.582,371.32 241,373.5C 242.536,380.417 243.369,387.417 243.5,394.5C 242.403,407.874 240.903,421.207 239,434.5C 238.665,442.846 234.998,449.18 228,453.5C 225.697,452.249 224.364,450.249 224,447.5C 223.189,433.506 224.356,419.672 227.5,406C 219.781,403.215 213.615,398.382 209,391.5C 206.668,384.674 205.168,377.674 204.5,370.5 Z"/></g>
<g><path style="opacity:1" fill="#82da5c" d="M 399.5,371.5 C 408.056,371.219 411.889,375.219 411,383.5C 409.877,380.751 408.377,378.251 406.5,376C 404.406,375.555 402.906,376.388 402,378.5C 401.333,380.833 401.333,383.167 402,385.5C 405.879,387.189 409.712,389.022 413.5,391C 422.096,400.432 421.096,408.765 410.5,416C 400.841,416.208 394.174,411.708 390.5,402.5C 390.667,402.167 390.833,401.833 391,401.5C 398.623,410.291 403.29,408.958 405,397.5C 398.916,394.418 394.583,389.751 392,383.5C 390.74,377.002 393.24,373.002 399.5,371.5 Z"/></g>
<g><path style="opacity:1" fill="#fffafd" d="M 93.5,373.5 C 95.1667,373.5 96.8333,373.5 98.5,373.5C 98.1181,383.201 97.2848,392.868 96,402.5C 92.3423,408.87 89.009,408.87 86,402.5C 85.5372,393.999 86.5372,385.665 89,377.5C 90.3968,375.93 91.8968,374.596 93.5,373.5 Z"/></g>
<g><path style="opacity:1" fill="#cc70e6" d="M 323.5,370.5 C 331.125,369.06 335.958,372.06 338,379.5C 338.498,382.817 338.665,386.15 338.5,389.5C 336.61,389.703 335.11,389.037 334,387.5C 332.593,382.603 330.427,378.103 327.5,374C 323.558,372.582 321.225,373.916 320.5,378C 325.304,392.148 325.637,406.314 321.5,420.5C 317.69,420.621 314.523,419.288 312,416.5C 311.285,404.325 310.452,392.159 309.5,380C 309.339,372.442 312.506,370.609 319,374.5C 320.667,373.267 322.167,371.933 323.5,370.5 Z"/></g>
<g><path style="opacity:1" fill="#23c2e0" d="M 371.5,373.5 C 374.505,373.253 377.005,374.253 379,376.5C 382.945,393.334 383.945,410.334 382,427.5C 378.431,432.66 374.764,432.66 371,427.5C 369.534,424.268 368.367,420.935 367.5,417.5C 360.805,418.37 354.972,416.37 350,411.5C 348.725,409.283 347.725,406.949 347,404.5C 346.214,394.793 346.547,385.126 348,375.5C 349.726,374.424 351.559,374.257 353.5,375C 354.956,377.266 355.79,379.766 356,382.5C 356.877,392.235 358.21,401.902 360,411.5C 362.367,414.932 365.034,415.265 368,412.5C 369.064,399.491 370.231,386.491 371.5,373.5 Z"/></g>
<g><path style="opacity:1" fill="#fdfffa" d="M 180.5,391.5 C 181.5,391.5 182.5,391.5 183.5,391.5C 183.666,396.511 183.499,401.511 183,406.5C 180.253,409.034 177.587,409.034 175,406.5C 174.333,402.833 174.333,399.167 175,395.5C 177.015,394.303 178.849,392.97 180.5,391.5 Z"/></g>
</svg>
